# xmcd
#
# Track frame offsets:
#	150
#	53613
#	95489
#	164631
#
# Disc length: 3826 seconds
#
# Revision: 0
# Processed by: cddbd v1.4PL0 Copyright (c) Steve Scherf et al.
# Submitted via: audiograbber 1.81.02
#
DISCID=2c0ef004
DTITLE=Allman Brothers Band - Cow Palace 12/31/73 - Disc 3
DYEAR=1900
DGENRE=
TTITLE0=allman - Whipping Post Jam
TTITLE1=Linda Lou -  Mary Lou
TTITLE2=Hideaway - You Upset Me
TTITLE3=Bo Didley - Mountain Jam - Bo Didley
EXTD=
EXTT0=
EXTT1=
EXTT2=
EXTT3=
PLAYORDER=
